<svg width="131" height="26" viewBox="0 0 131 26" fill="none" xmlns="http://www.w3.org/2000/svg">
<g clip-path="url(#clip0_5079_139109)">
<path d="M20.1321 0.399902C17.1496 0.399902 14.6641 2.88534 14.5399 5.86788V11.9572C14.0428 11.9572 13.4214 12.0815 12.8 12.0815C12.1787 12.0815 11.5573 12.0815 11.0602 12.2058V5.86788C11.0602 2.88534 8.57478 0.399902 5.46798 0.399902C2.48544 0.399902 0.124272 2.88534 0 5.86788V20.532C0.124272 23.5145 2.48544 26 5.59225 26C8.57478 25.8757 11.0602 23.5145 11.0602 20.532V14.4427C11.5573 14.4427 12.1787 14.3184 12.8 14.3184C13.4214 14.3184 14.0428 14.3184 14.5399 14.1941V20.4077C14.6641 23.3903 17.0253 25.8757 20.1321 25.8757C23.1146 25.7514 25.6001 23.3903 25.6001 20.4077V5.86788C25.6001 2.88534 23.1146 0.399902 20.1321 0.399902ZM5.59225 2.6368C7.45633 2.6368 8.82333 4.12807 8.82333 5.86788V12.33C7.20779 12.5786 5.59225 13.0757 4.10098 13.697C3.47962 14.0698 2.85826 14.3184 2.2369 14.8155V5.86788C2.36117 4.12807 3.72817 2.6368 5.59225 2.6368ZM8.82333 20.532C8.82333 22.3961 7.33206 23.7631 5.59225 23.7631C3.85244 23.7631 2.36117 22.2718 2.36117 20.532V19.0407C2.36117 17.798 3.35535 16.5553 5.09516 15.8097C6.33788 15.3126 7.58061 14.9398 8.9476 14.6912L8.82333 20.532ZM20.1321 23.7631C18.268 23.7631 16.901 22.2718 16.901 20.532V14.0698C18.5166 13.8213 20.1321 13.3242 21.6234 12.7029C22.2447 12.33 22.8661 12.0815 23.4875 11.5844V20.532C23.3632 22.3961 21.8719 23.7631 20.1321 23.7631ZM20.6292 10.5902C19.3865 11.0873 18.1437 11.4601 16.7768 11.7087V5.86788C16.7768 4.00379 18.268 2.6368 20.0078 2.6368C21.7476 2.6368 23.2389 4.12807 23.2389 5.86788V7.35915C23.3632 8.60187 22.369 9.84459 20.6292 10.5902Z" fill="url(#paint0_linear_5079_139109)"/>
<path d="M99.6667 9.22314C96.1871 9.22314 93.3289 11.9571 93.4531 15.561C93.4531 19.0406 96.1871 21.8989 99.791 21.7746C103.271 21.7746 106.005 19.0407 106.005 15.4368C105.88 12.0814 103.146 9.22314 99.6667 9.22314ZM103.892 15.561C103.892 17.9222 102.028 19.7863 99.6667 19.7863C97.3056 19.7863 95.4415 17.9222 95.4415 15.561C95.4415 13.1999 97.3056 11.3358 99.6667 11.3358C102.028 11.3358 103.892 13.1999 103.892 15.561Z" fill="white"/>
<path d="M62.1357 9.34746C61.6386 9.34746 61.1415 9.84455 61.1415 10.3416V10.8387C58.6561 8.47755 54.5551 8.7261 52.3182 11.2115C49.957 13.697 50.2056 17.798 52.691 20.0349C55.0522 22.2718 58.7804 22.2718 61.1415 20.0349V20.532C61.1415 21.029 61.5144 21.5261 62.1357 21.5261C62.6328 21.5261 63.1299 21.1533 63.1299 20.532V20.4077V10.0931C63.1299 9.72028 62.6328 9.34746 62.1357 9.34746ZM61.0173 15.5611C61.0173 17.9222 59.1532 19.7863 56.792 19.7863C54.4308 19.7863 52.5668 17.9222 52.5668 15.5611C52.5668 13.1999 54.4308 11.3358 56.792 11.3358C59.1532 11.3358 61.0173 13.1999 61.0173 15.5611Z" fill="white"/>
<path d="M72.9473 10.2173C72.9473 10.7144 72.4502 11.2115 71.9531 11.2115H71.8288C69.4677 11.2115 67.6036 13.0756 67.6036 15.4368C67.4793 15.6853 67.6036 18.9164 67.6036 20.7805C67.4793 21.2776 67.1065 21.7746 66.4851 21.6504C65.988 21.5261 65.6152 21.1533 65.6152 20.6562V10.3416C65.6152 9.84451 66.1123 9.34741 66.6094 9.34741H66.7337C67.2308 9.47169 67.7279 9.84451 67.7279 10.3416V10.8387C68.8463 9.8445 70.3376 9.22314 71.9531 9.22314H72.0774C72.4502 9.22314 72.9473 9.72023 72.9473 10.2173Z" fill="white"/>
<path d="M117.934 14.4426V20.6562C117.934 21.1533 117.437 21.6504 116.94 21.6504C116.443 21.6504 115.946 21.1533 115.946 20.6562V19.6621V14.4426C115.946 12.7028 114.454 11.2116 112.715 11.2116C112.59 11.2116 112.59 11.2116 112.466 11.2116C110.85 11.3358 109.483 12.8271 109.483 14.4426V15.6854V19.5378V20.532C109.483 21.0291 108.986 21.5262 108.489 21.5262C107.992 21.5262 107.495 21.0291 107.495 20.532V10.2174C107.495 9.72029 107.992 9.2232 108.489 9.2232C108.986 9.2232 109.483 9.72029 109.483 10.2174V10.3417C110.229 9.72029 111.348 9.34747 112.466 9.2232C115.324 9.09893 117.81 11.3358 117.934 14.1941C117.934 14.3184 117.934 14.4426 117.934 14.4426Z" fill="white"/>
<path d="M48.5901 5.61918V20.7804C48.5901 21.2775 48.093 21.7746 47.596 21.7746C47.0989 21.7746 46.6018 21.2775 46.6018 20.7804V13.9454H36.2872V20.7804C36.2872 21.2775 35.7901 21.7746 35.293 21.7746C34.7959 21.7746 34.2988 21.2775 34.2988 20.7804V5.61918C34.2988 5.12209 34.7959 4.625 35.293 4.625C35.7901 4.625 36.2872 5.12209 36.2872 5.61918V12.2056H46.7261V5.61918C46.7261 5.12209 47.2231 4.625 47.7202 4.625C48.0931 4.625 48.5901 5.12209 48.5901 5.61918Z" fill="white"/>
<path d="M91.9621 14.9399V20.6565C91.9621 21.1535 91.465 21.6506 90.9679 21.6506C90.4708 21.6506 89.9737 21.1535 89.9737 20.6565V15.437V14.07C89.9737 12.4545 88.731 11.2118 87.2397 11.2118C85.7485 11.2118 84.3815 12.4545 84.3815 13.9458C84.3815 14.07 84.3815 14.07 84.3815 14.07V20.6565C84.3815 21.1535 84.0086 21.6506 83.3873 21.6506C82.8902 21.6506 82.3931 21.2778 82.3931 20.6565V20.5322V15.1885V13.8215C82.3931 12.2059 81.1504 10.9632 79.6591 10.9632C78.1679 10.9632 76.8009 12.2059 76.8009 13.6972C76.8009 13.8215 76.8009 13.8215 76.8009 13.8215V20.4079C76.8009 20.905 76.428 21.4021 75.8067 21.4021C75.3096 21.4021 74.8125 21.0293 74.8125 20.4079V20.2836V9.96904C74.8125 9.47195 75.3096 8.97487 75.8067 8.97487C76.3038 8.97487 76.8009 9.34768 76.8009 9.84477C78.9135 8.3535 81.896 8.72632 83.5116 10.8389C85.1271 8.72632 88.2339 8.3535 90.2223 9.96904C91.465 10.9632 92.0863 12.3302 92.0863 13.8215L91.9621 14.9399Z" fill="white"/>
<path d="M130.361 10.7147L123.526 25.5031C123.153 26.0002 122.532 26.1245 122.035 25.8759C121.662 25.6274 121.413 25.1303 121.538 24.6332L123.402 20.6565L118.804 10.7147C118.431 10.2176 118.679 9.59627 119.176 9.22345C119.673 8.85063 120.295 9.09918 120.668 9.59627C120.668 9.72054 120.792 9.72054 120.792 9.72054L124.644 18.0468L128.497 9.72054C128.621 9.22345 129.242 8.97491 129.739 9.09918C130.237 9.22345 130.485 9.84481 130.361 10.3419C130.485 10.5904 130.361 10.7147 130.361 10.7147Z" fill="white"/>
</g>
<defs>
<linearGradient id="paint0_linear_5079_139109" x1="19.207" y1="6.77445" x2="1.53911" y2="24.4425" gradientUnits="userSpaceOnUse">
<stop stop-color="#00E8A2"/>
<stop offset="1" stop-color="#00ADE8"/>
</linearGradient>
<clipPath id="clip0_5079_139109">
<rect width="130.416" height="25.6001" fill="white" transform="translate(0 0.399902)"/>
</clipPath>
</defs>
</svg>
