<svg width="711" height="170" viewBox="0 0 711 170" fill="none" xmlns="http://www.w3.org/2000/svg">
<mask id="mask0_35_272" style="mask-type:alpha" maskUnits="userSpaceOnUse" x="0" y="0" width="147" height="170">
<path fill-rule="evenodd" clip-rule="evenodd" d="M58.5649 23H58.5605V8.68664L0.335938 42.3026V126.908L73.6062 169.211L82.6406 163.995V150.969L73.6062 156.185L11.6166 120.395V48.8155L47.2842 28.2229L47.2842 110.927H58.5649V110.927L83.0066 110.927V99.6462L58.5649 99.6462L58.5649 23ZM73.6062 13.0258L64.5605 18.2484V5.22254L73.6062 0L146.877 42.3026V126.908L88.6406 160.53V147.505L88.6461 147.501L88.6461 69.5641L64.2044 69.5641V58.2834L98.0465 58.2834V58.2834H99.9268L99.9268 140.989L135.596 120.395V48.8155L73.6062 13.0258Z" fill="black"/>
</mask>
<g mask="url(#mask0_35_272)">
<rect x="-25" y="-24" width="196" height="196" fill="url(#paint0_linear_35_272)"/>
</g>
<path d="M183.558 156V122.78H193.027C195.526 122.78 197.703 123.084 199.56 123.692C201.417 124.299 202.868 125.329 203.915 126.781C204.961 128.199 205.485 130.123 205.485 132.554C205.485 136.031 204.354 138.614 202.092 140.302C199.83 141.99 196.876 142.834 193.23 142.834H187.761V156H183.558ZM187.761 139.39H192.723C195.627 139.39 197.771 138.85 199.155 137.77C200.573 136.656 201.282 134.917 201.282 132.554C201.282 130.157 200.539 128.502 199.053 127.591C197.602 126.646 195.424 126.173 192.521 126.173H187.761V139.39ZM227.432 156V122.78H237.814C240.076 122.78 242.084 123.084 243.84 123.692C245.595 124.266 246.963 125.245 247.942 126.629C248.954 127.979 249.461 129.802 249.461 132.098C249.461 134.664 248.786 136.74 247.435 138.327C246.085 139.88 244.262 140.943 241.966 141.517L250.423 156H245.663L237.662 141.973H231.636V156H227.432ZM231.636 138.529H237.206C239.805 138.529 241.797 138.006 243.181 136.959C244.566 135.879 245.258 134.259 245.258 132.098C245.258 129.904 244.566 128.367 243.181 127.49C241.797 126.612 239.805 126.173 237.206 126.173H231.636V138.529ZM283.71 156.608C280.942 156.608 278.478 155.899 276.317 154.481C274.19 153.063 272.519 151.054 271.304 148.455C270.122 145.855 269.531 142.783 269.531 139.238C269.531 135.693 270.122 132.655 271.304 130.123C272.519 127.557 274.19 125.599 276.317 124.249C278.478 122.865 280.942 122.172 283.71 122.172C286.513 122.172 288.977 122.865 291.104 124.249C293.231 125.599 294.902 127.557 296.117 130.123C297.333 132.655 297.94 135.693 297.94 139.238C297.94 142.783 297.333 145.855 296.117 148.455C294.902 151.054 293.231 153.063 291.104 154.481C288.977 155.899 286.513 156.608 283.71 156.608ZM283.71 152.911C285.702 152.911 287.424 152.354 288.876 151.24C290.361 150.092 291.509 148.505 292.319 146.48C293.13 144.42 293.535 142.006 293.535 139.238C293.535 135.119 292.64 131.862 290.851 129.465C289.061 127.068 286.681 125.869 283.71 125.869C280.74 125.869 278.36 127.068 276.57 129.465C274.781 131.862 273.886 135.119 273.886 139.238C273.886 142.006 274.291 144.42 275.102 146.48C275.912 148.505 277.06 150.092 278.545 151.24C280.031 152.354 281.752 152.911 283.71 152.911ZM325.926 156V126.325H315.9V122.78H340.207V126.325H330.18V156H325.926ZM372.4 156.608C369.631 156.608 367.167 155.899 365.006 154.481C362.879 153.063 361.208 151.054 359.993 148.455C358.811 145.855 358.22 142.783 358.22 139.238C358.22 135.693 358.811 132.655 359.993 130.123C361.208 127.557 362.879 125.599 365.006 124.249C367.167 122.865 369.631 122.172 372.4 122.172C375.202 122.172 377.666 122.865 379.793 124.249C381.92 125.599 383.591 127.557 384.806 130.123C386.022 132.655 386.63 135.693 386.63 139.238C386.63 142.783 386.022 145.855 384.806 148.455C383.591 151.054 381.92 153.063 379.793 154.481C377.666 155.899 375.202 156.608 372.4 156.608ZM372.4 152.911C374.392 152.911 376.113 152.354 377.565 151.24C379.05 150.092 380.198 148.505 381.009 146.48C381.819 144.42 382.224 142.006 382.224 139.238C382.224 135.119 381.329 131.862 379.54 129.465C377.751 127.068 375.371 125.869 372.4 125.869C369.429 125.869 367.049 127.068 365.259 129.465C363.47 131.862 362.576 135.119 362.576 139.238C362.576 142.006 362.981 144.42 363.791 146.48C364.601 148.505 365.749 150.092 367.234 151.24C368.72 152.354 370.442 152.911 372.4 152.911ZM421.524 156.608C418.755 156.608 416.274 155.932 414.08 154.582C411.919 153.198 410.197 151.223 408.914 148.657C407.665 146.091 407.041 143.002 407.041 139.39C407.041 135.812 407.682 132.739 408.965 130.174C410.248 127.608 412.003 125.633 414.231 124.249C416.46 122.865 418.975 122.172 421.777 122.172C423.802 122.172 425.592 122.594 427.145 123.438C428.698 124.249 429.947 125.194 430.892 126.274L428.613 129.009C427.735 128.064 426.74 127.304 425.625 126.73C424.511 126.156 423.245 125.869 421.827 125.869C419.734 125.869 417.894 126.426 416.308 127.54C414.755 128.621 413.539 130.157 412.662 132.149C411.818 134.14 411.396 136.52 411.396 139.289C411.396 142.057 411.818 144.471 412.662 146.53C413.506 148.556 414.687 150.126 416.206 151.24C417.759 152.354 419.582 152.911 421.676 152.911C423.262 152.911 424.68 152.573 425.929 151.898C427.178 151.223 428.326 150.311 429.373 149.164L431.702 151.797C430.386 153.316 428.9 154.498 427.246 155.342C425.592 156.186 423.684 156.608 421.524 156.608ZM463.858 156.608C461.09 156.608 458.625 155.899 456.465 154.481C454.338 153.063 452.667 151.054 451.451 148.455C450.27 145.855 449.679 142.783 449.679 139.238C449.679 135.693 450.27 132.655 451.451 130.123C452.667 127.557 454.338 125.599 456.465 124.249C458.625 122.865 461.09 122.172 463.858 122.172C466.66 122.172 469.125 122.865 471.252 124.249C473.379 125.599 475.05 127.557 476.265 130.123C477.48 132.655 478.088 135.693 478.088 139.238C478.088 142.783 477.48 145.855 476.265 148.455C475.05 151.054 473.379 153.063 471.252 154.481C469.125 155.899 466.66 156.608 463.858 156.608ZM463.858 152.911C465.85 152.911 467.572 152.354 469.024 151.24C470.509 150.092 471.657 148.505 472.467 146.48C473.277 144.42 473.682 142.006 473.682 139.238C473.682 135.119 472.788 131.862 470.999 129.465C469.209 127.068 466.829 125.869 463.858 125.869C460.887 125.869 458.507 127.068 456.718 129.465C454.929 131.862 454.034 135.119 454.034 139.238C454.034 142.006 454.439 144.42 455.249 146.48C456.06 148.505 457.208 150.092 458.693 151.24C460.178 152.354 461.9 152.911 463.858 152.911ZM500.424 156V122.78H504.627V152.405H519.16V156H500.424Z" fill="white"/>
<path d="M186.585 98V33.7731H201.066V85.7851H226.481V98H186.585ZM273.907 99.1821C268.128 99.1821 263.038 97.8358 258.638 95.1433C254.304 92.4507 250.889 88.6089 248.393 83.6179C245.963 78.5612 244.748 72.5522 244.748 65.591C244.748 58.5641 245.963 52.6209 248.393 47.7612C250.889 42.8358 254.304 39.0925 258.638 36.5313C263.038 33.9044 268.128 32.591 273.907 32.591C279.686 32.591 284.742 33.9044 289.077 36.5313C293.477 39.0925 296.892 42.8358 299.322 47.7612C301.817 52.6865 303.065 58.6298 303.065 65.591C303.065 72.5522 301.817 78.5612 299.322 83.6179C296.892 88.6089 293.477 92.4507 289.077 95.1433C284.742 97.8358 279.686 99.1821 273.907 99.1821ZM273.907 86.6716C278.307 86.6716 281.787 84.7672 284.348 80.9582C286.91 77.1492 288.19 72.0268 288.19 65.591C288.19 59.1552 286.91 54.1313 284.348 50.5194C281.787 46.9074 278.307 45.1015 273.907 45.1015C269.507 45.1015 266.026 46.9074 263.465 50.5194C260.904 54.1313 259.623 59.1552 259.623 65.591C259.623 72.0268 260.904 77.1492 263.465 80.9582C266.026 84.7672 269.507 86.6716 273.907 86.6716ZM348.535 99.1821C344.332 99.1821 340.129 98.394 335.926 96.8179C331.789 95.2418 328.079 92.9433 324.795 89.9224L333.07 79.9731C335.368 81.9433 337.929 83.5522 340.753 84.8C343.577 86.0478 346.302 86.6716 348.929 86.6716C351.95 86.6716 354.183 86.1134 355.628 84.997C357.138 83.8806 357.894 82.3701 357.894 80.4657C357.894 78.4298 357.04 76.9522 355.332 76.0328C353.691 75.0477 351.458 73.9642 348.634 72.7821L340.261 69.2358C338.094 68.3164 336.025 67.1015 334.055 65.591C332.085 64.0149 330.476 62.0776 329.228 59.7791C327.98 57.4806 327.356 54.788 327.356 51.7015C327.356 48.1552 328.308 44.9373 330.213 42.0477C332.183 39.1582 334.876 36.8597 338.291 35.1522C341.771 33.4447 345.744 32.591 350.21 32.591C353.888 32.591 357.565 33.3134 361.243 34.7582C364.92 36.2029 368.138 38.3044 370.897 41.0626L363.508 50.2238C361.407 48.582 359.305 47.3343 357.204 46.4806C355.102 45.5612 352.771 45.1015 350.21 45.1015C347.714 45.1015 345.711 45.6268 344.201 46.6776C342.756 47.6626 342.034 49.0746 342.034 50.9134C342.034 52.8835 342.953 54.3612 344.792 55.3462C346.697 56.3313 349.028 57.3821 351.786 58.4985L360.061 61.8477C363.935 63.4239 367.022 65.591 369.32 68.3492C371.619 71.1074 372.768 74.7522 372.768 79.2836C372.768 82.8298 371.816 86.1134 369.911 89.1343C368.007 92.1552 365.249 94.5851 361.637 96.4239C358.025 98.2627 353.658 99.1821 348.535 99.1821ZM415.332 99.1821C411.129 99.1821 406.926 98.394 402.723 96.8179C398.586 95.2418 394.875 92.9433 391.592 89.9224L399.866 79.9731C402.165 81.9433 404.726 83.5522 407.55 84.8C410.374 86.0478 413.099 86.6716 415.726 86.6716C418.747 86.6716 420.98 86.1134 422.424 84.997C423.935 83.8806 424.69 82.3701 424.69 80.4657C424.69 78.4298 423.836 76.9522 422.129 76.0328C420.487 75.0477 418.254 73.9642 415.43 72.7821L407.057 69.2358C404.89 68.3164 402.821 67.1015 400.851 65.591C398.881 64.0149 397.272 62.0776 396.024 59.7791C394.777 57.4806 394.153 54.788 394.153 51.7015C394.153 48.1552 395.105 44.9373 397.009 42.0477C398.98 39.1582 401.672 36.8597 405.087 35.1522C408.568 33.4447 412.541 32.591 417.007 32.591C420.684 32.591 424.362 33.3134 428.039 34.7582C431.717 36.2029 434.935 38.3044 437.693 41.0626L430.305 50.2238C428.204 48.582 426.102 47.3343 424.001 46.4806C421.899 45.5612 419.568 45.1015 417.007 45.1015C414.511 45.1015 412.508 45.6268 410.998 46.6776C409.553 47.6626 408.83 49.0746 408.83 50.9134C408.83 52.8835 409.75 54.3612 411.589 55.3462C413.493 56.3313 415.824 57.3821 418.583 58.4985L426.857 61.8477C430.732 63.4239 433.818 65.591 436.117 68.3492C438.415 71.1074 439.565 74.7522 439.565 79.2836C439.565 82.8298 438.613 86.1134 436.708 89.1343C434.804 92.1552 432.045 94.5851 428.433 96.4239C424.821 98.2627 420.454 99.1821 415.332 99.1821ZM464.257 98V33.7731H478.738V85.7851H504.153V98H464.257ZM529.033 98V33.7731H569.225V45.988H543.514V58.8925H565.383V71.0089H543.514V85.7851H570.21V98H529.033ZM616.395 99.1821C612.192 99.1821 607.989 98.394 603.786 96.8179C599.649 95.2418 595.938 92.9433 592.655 89.9224L600.929 79.9731C603.228 81.9433 605.789 83.5522 608.613 84.8C611.437 86.0478 614.162 86.6716 616.789 86.6716C619.81 86.6716 622.043 86.1134 623.488 84.997C624.998 83.8806 625.753 82.3701 625.753 80.4657C625.753 78.4298 624.9 76.9522 623.192 76.0328C621.55 75.0477 619.317 73.9642 616.494 72.7821L608.12 69.2358C605.953 68.3164 603.885 67.1015 601.914 65.591C599.944 64.0149 598.335 62.0776 597.088 59.7791C595.84 57.4806 595.216 54.788 595.216 51.7015C595.216 48.1552 596.168 44.9373 598.073 42.0477C600.043 39.1582 602.735 36.8597 606.15 35.1522C609.631 33.4447 613.604 32.591 618.07 32.591C621.747 32.591 625.425 33.3134 629.102 34.7582C632.78 36.2029 635.998 38.3044 638.756 41.0626L631.368 50.2238C629.267 48.582 627.165 47.3343 625.064 46.4806C622.962 45.5612 620.631 45.1015 618.07 45.1015C615.574 45.1015 613.571 45.6268 612.061 46.6776C610.616 47.6626 609.894 49.0746 609.894 50.9134C609.894 52.8835 610.813 54.3612 612.652 55.3462C614.556 56.3313 616.888 57.3821 619.646 58.4985L627.92 61.8477C631.795 63.4239 634.882 65.591 637.18 68.3492C639.479 71.1074 640.628 74.7522 640.628 79.2836C640.628 82.8298 639.676 86.1134 637.771 89.1343C635.867 92.1552 633.108 94.5851 629.497 96.4239C625.885 98.2627 621.517 99.1821 616.395 99.1821ZM683.192 99.1821C678.989 99.1821 674.786 98.394 670.583 96.8179C666.445 95.2418 662.735 92.9433 659.451 89.9224L667.726 79.9731C670.024 81.9433 672.586 83.5522 675.409 84.8C678.233 86.0478 680.959 86.6716 683.586 86.6716C686.607 86.6716 688.839 86.1134 690.284 84.997C691.795 83.8806 692.55 82.3701 692.55 80.4657C692.55 78.4298 691.696 76.9522 689.989 76.0328C688.347 75.0477 686.114 73.9642 683.29 72.7821L674.917 69.2358C672.75 68.3164 670.681 67.1015 668.711 65.591C666.741 64.0149 665.132 62.0776 663.884 59.7791C662.636 57.4806 662.012 54.788 662.012 51.7015C662.012 48.1552 662.965 44.9373 664.869 42.0477C666.839 39.1582 669.532 36.8597 672.947 35.1522C676.427 33.4447 680.401 32.591 684.866 32.591C688.544 32.591 692.221 33.3134 695.899 34.7582C699.577 36.2029 702.795 38.3044 705.553 41.0626L698.165 50.2238C696.063 48.582 693.962 47.3343 691.86 46.4806C689.759 45.5612 687.427 45.1015 684.866 45.1015C682.371 45.1015 680.368 45.6268 678.857 46.6776C677.412 47.6626 676.69 49.0746 676.69 50.9134C676.69 52.8835 677.609 54.3612 679.448 55.3462C681.353 56.3313 683.684 57.3821 686.442 58.4985L694.717 61.8477C698.592 63.4239 701.678 65.591 703.977 68.3492C706.275 71.1074 707.424 74.7522 707.424 79.2836C707.424 82.8298 706.472 86.1134 704.568 89.1343C702.663 92.1552 699.905 94.5851 696.293 96.4239C692.681 98.2627 688.314 99.1821 683.192 99.1821Z" fill="white"/>
<defs>
<linearGradient id="paint0_linear_35_272" x1="-25" y1="74" x2="171" y2="74" gradientUnits="userSpaceOnUse">
<stop stop-color="#4776E6"/>
<stop offset="1" stop-color="#8E54E9"/>
</linearGradient>
</defs>
</svg>
